<?xml version="1.0" encoding="UTF-8" standalone="no"?>
<svg
   width="48.001011mm"
   height="32.999935mm"
   viewBox="0 0 181.42114 124.72416"
   version="1.1"
   id="svg1"
   sodipodi:docname="VisualLaravel.svg"
   inkscape:version="1.3 (0e150ed6c4, 2023-07-21)"
   inkscape:export-filename="VisualLaravel.png"
   inkscape:export-xdpi="1000"
   inkscape:export-ydpi="1000"
   xmlns:inkscape="http://www.inkscape.org/namespaces/inkscape"
   xmlns:sodipodi="http://sodipodi.sourceforge.net/DTD/sodipodi-0.dtd"
   xmlns="http://www.w3.org/2000/svg"
   xmlns:svg="http://www.w3.org/2000/svg"
   xmlns:rdf="http://www.w3.org/1999/02/22-rdf-syntax-ns#"
   xmlns:cc="http://creativecommons.org/ns#"
   xmlns:dc="http://purl.org/dc/elements/1.1/">
  <defs
     id="defs1" />
  <sodipodi:namedview
     id="namedview1"
     pagecolor="black"
     bordercolor="#666666"
     borderopacity="1.0"
     inkscape:showpageshadow="2"
     inkscape:pageopacity="0.0"
     inkscape:pagecheckerboard="0"
     inkscape:deskcolor="#d1d1d1"
     inkscape:document-units="mm"
     showguides="true"
     inkscape:zoom="11.252378"
     inkscape:cx="110.02118"
     inkscape:cy="81.582752"
     inkscape:window-width="1757"
     inkscape:window-height="1057"
     inkscape:window-x="155"
     inkscape:window-y="-8"
     inkscape:window-maximized="1"
     inkscape:current-layer="svg1"
     inkscape:clip-to-page="false" />
  <title
     id="title1">Logomark</title>
  <metadata
     id="metadata1">
    <rdf:RDF>
      <cc:Work
         rdf:about="">
        <dc:title>Logomark</dc:title>
      </cc:Work>
    </rdf:RDF>
  </metadata>
  <path
     id="path134"
     style="display:inline;fill:white;fill-opacity:1;stroke:#ff2d20;stroke-width:3.23423;stroke-linecap:round;stroke-linejoin:round;stroke-dasharray:none;stroke-opacity:1"
     transform="matrix(0.98879343,0,0,0.99785159,-135.04769,-154.81428)"
     d="m 260.80437,233.65539 -0.0957,22.14205 m -19.17119,-76.88364 -0.0503,43.87973 m 38.45278,-44.06498 19.25388,11.02664 m -19.26388,10.89521 19.25212,11.05485 m -38.37771,21.95019 -19.31721,-10.86186 m -19.18205,-54.95732 19.2324,11.07735 m 57.6446,32.79164 0.0118,-21.9503 m -4e-5,-1e-5 19.15604,-11.07158 m -57.54551,54.97189 38.37771,-21.95 m -57.69492,11.08813 19.22146,-11.07163 m -19.17115,-32.80809 19.15605,-11.07159 m -38.38838,-0.006 19.15599,-11.07159 19.23239,11.07745 0.0151,43.87961 19.22142,-11.07157 0.01,-21.92185 19.23472,-11.07149 19.17519,11.02661 0.0846,21.96674 -19.25238,11.05506 -0.0118,21.94984 -38.46169,22.14231 -38.42134,-22.10884 z"
     inkscape:label="Laravel"
     inkscape:export-filename="VisualLaravel.png"
     inkscape:export-xdpi="1000"
     inkscape:export-ydpi="1000" />
  <path
     id="path108"
     style="display:inline;fill:white;fill-opacity:1;stroke:#ff2d20;stroke-width:3.21388;stroke-linecap:round;stroke-linejoin:round;stroke-dasharray:none;stroke-opacity:1"
     transform="matrix(1.0009656,0,0,0.9982436,-185.96387,-89.781391)"
     d="m 232.10967,173.4785 9.42784,5.43512 m -7.05969,4.07735 7.05968,-4.07736 m -16.12085,-31.6734 9.06118,35.75076 m 10.01847,-46.59399 -2.95879,42.51663 m -16.09161,-53.58654 19.0504,11.06991 m 0,0 18.97476,-11.06396 m -76.07964,21.90129 19.05042,11.07041 m 0,0 18.97481,-11.06446 m 0,0 -1.1909,-0.76016 m -17.78391,11.82462 13.69113,54.97132 m -19.23239,-11.0773 -13.50916,-54.96443 18.97481,-11.06451 17.85952,10.3103 1.22015,-21.15303 18.97477,-11.06397 19.05039,11.06994 -4.87644,65.80067 -38.46164,22.14226 z"
     inkscape:label="Visual" />
</svg>
